<svg xmlns="http://www.w3.org/2000/svg" viewBox="0 0 960 320" role="img" aria-labelledby="title desc">
  <title id="title">Skill Router wordmark</title>
  <desc id="desc">Skill Router wordmark with a routed node symbol.</desc>
  <defs>
    <linearGradient id="mark" x1="40" y1="280" x2="280" y2="40" gradientUnits="userSpaceOnUse">
      <stop offset="0" stop-color="#111827"/>
      <stop offset="0.55" stop-color="#1D4ED8"/>
      <stop offset="1" stop-color="#10B981"/>
    </linearGradient>
    <linearGradient id="line" x1="330" y1="250" x2="900" y2="70" gradientUnits="userSpaceOnUse">
      <stop offset="0" stop-color="#1D4ED8"/>
      <stop offset="1" stop-color="#10B981"/>
    </linearGradient>
  </defs>
  <rect width="960" height="320" rx="44" fill="#F8FAFC"/>
  <rect x="40" y="40" width="240" height="240" rx="56" fill="url(#mark)"/>
  <path d="M106 112h56c30 0 54 24 54 54v6" fill="none" stroke="#D1FAE5" stroke-width="18" stroke-linecap="round"/>
  <path d="M106 208h56c30 0 54-24 54-54v-6" fill="none" stroke="#BFDBFE" stroke-width="18" stroke-linecap="round"/>
  <path d="M208 126l36 36-36 36" fill="none" stroke="#FFFFFF" stroke-width="18" stroke-linecap="round" stroke-linejoin="round"/>
  <circle cx="104" cy="112" r="26" fill="#FFFFFF"/>
  <circle cx="104" cy="208" r="26" fill="#FFFFFF"/>
  <circle cx="244" cy="162" r="30" fill="#FFFFFF"/>
  <circle cx="104" cy="112" r="9" fill="#1D4ED8"/>
  <circle cx="104" cy="208" r="9" fill="#10B981"/>
  <circle cx="244" cy="162" r="11" fill="#111827"/>
  <text x="330" y="145" fill="#111827" font-family="Inter, Segoe UI, Arial, sans-serif" font-size="68" font-weight="800">Skill Router</text>
  <text x="333" y="202" fill="#475569" font-family="Inter, Segoe UI, Arial, sans-serif" font-size="28" font-weight="500">Find the right Codex skill before the work begins.</text>
  <path d="M334 238h208c40 0 64-28 96-28h190" fill="none" stroke="url(#line)" stroke-width="10" stroke-linecap="round"/>
  <circle cx="334" cy="238" r="8" fill="#1D4ED8"/>
  <circle cx="640" cy="210" r="8" fill="#10B981"/>
  <circle cx="828" cy="210" r="8" fill="#111827"/>
</svg>
