<svg xmlns="http://www.w3.org/2000/svg" viewBox="0 0 1200 630" role="img" aria-labelledby="title desc">
  <title id="title">Skill Router preview</title>
  <desc id="desc">A GitHub preview image for Skill Router.</desc>
  <defs>
    <linearGradient id="bg" x1="0" y1="630" x2="1200" y2="0" gradientUnits="userSpaceOnUse">
      <stop offset="0" stop-color="#0F172A"/>
      <stop offset="0.52" stop-color="#172554"/>
      <stop offset="1" stop-color="#064E3B"/>
    </linearGradient>
    <linearGradient id="accent" x1="184" y1="492" x2="956" y2="124" gradientUnits="userSpaceOnUse">
      <stop offset="0" stop-color="#60A5FA"/>
      <stop offset="1" stop-color="#34D399"/>
    </linearGradient>
    <filter id="soft" x="-20%" y="-20%" width="140%" height="140%">
      <feDropShadow dx="0" dy="28" stdDeviation="28" flood-color="#020617" flood-opacity="0.32"/>
    </filter>
  </defs>
  <rect width="1200" height="630" fill="url(#bg)"/>
  <circle cx="1020" cy="112" r="190" fill="#22C55E" opacity="0.12"/>
  <circle cx="120" cy="580" r="250" fill="#3B82F6" opacity="0.12"/>
  <g filter="url(#soft)">
    <rect x="96" y="84" width="1008" height="462" rx="48" fill="#F8FAFC"/>
    <rect x="140" y="128" width="270" height="270" rx="60" fill="url(#accent)"/>
    <path d="M218 214h84c38 0 68 30 68 68v8" fill="none" stroke="#D1FAE5" stroke-width="25" stroke-linecap="round"/>
    <path d="M218 326h84c38 0 68-30 68-68v-8" fill="none" stroke="#DBEAFE" stroke-width="25" stroke-linecap="round"/>
    <path d="M356 234l52 52-52 52" fill="none" stroke="#FFFFFF" stroke-width="25" stroke-linecap="round" stroke-linejoin="round"/>
    <circle cx="216" cy="214" r="36" fill="#FFFFFF"/>
    <circle cx="216" cy="326" r="36" fill="#FFFFFF"/>
    <circle cx="420" cy="286" r="42" fill="#FFFFFF"/>
    <circle cx="216" cy="214" r="13" fill="#1D4ED8"/>
    <circle cx="216" cy="326" r="13" fill="#10B981"/>
    <circle cx="420" cy="286" r="15" fill="#0F172A"/>
    <text x="470" y="225" fill="#0F172A" font-family="Inter, Segoe UI, Arial, sans-serif" font-size="78" font-weight="850">Skill Router</text>
    <text x="474" y="292" fill="#475569" font-family="Inter, Segoe UI, Arial, sans-serif" font-size="32" font-weight="500">Route Codex work to the right skill.</text>
    <rect x="474" y="344" width="178" height="52" rx="26" fill="#DBEAFE"/>
    <text x="504" y="379" fill="#1D4ED8" font-family="Inter, Segoe UI, Arial, sans-serif" font-size="22" font-weight="750">scan</text>
    <rect x="672" y="344" width="186" height="52" rx="26" fill="#D1FAE5"/>
    <text x="702" y="379" fill="#047857" font-family="Inter, Segoe UI, Arial, sans-serif" font-size="22" font-weight="750">rank</text>
    <rect x="878" y="344" width="156" height="52" rx="26" fill="#E2E8F0"/>
    <text x="908" y="379" fill="#334155" font-family="Inter, Segoe UI, Arial, sans-serif" font-size="22" font-weight="750">route</text>
    <path d="M474 444h132c38 0 62-24 96-24h110c36 0 58 24 92 24h130" fill="none" stroke="url(#accent)" stroke-width="10" stroke-linecap="round"/>
    <circle cx="474" cy="444" r="9" fill="#1D4ED8"/>
    <circle cx="706" cy="420" r="9" fill="#10B981"/>
    <circle cx="1034" cy="444" r="9" fill="#0F172A"/>
  </g>
</svg>
